<?xml version="1.0" encoding="utf-8"?>
<!-- Generator: Adobe Illustrator 27.0.0, SVG Export Plug-In . SVG Version: 6.00 Build 0)  -->
<svg version="1.1" id="Layer_1" xmlns="http://www.w3.org/2000/svg" xmlns:xlink="http://www.w3.org/1999/xlink" x="0px" y="0px"
	 viewBox="0 0 40 40" style="enable-background:new 0 0 40 40;" xml:space="preserve">
<style type="text/css">
	.st0{fill:#EC1A2E;}
	.st1{fill:#FFFFFF;}
</style>
<g>
	<rect x="-0.08" y="0" class="st0" width="40" height="40"/>
	<g>
		<path class="st1" d="M23.59,25.42c-5.37,4.32-12.71,3.42-16.95-1.28C2.33,19.35,2.43,12.17,6.75,7.52
			c4.4-4.74,11.6-5.32,16.65-1.32c2.69,2.13,4.26,4.92,4.64,8.34c0.38,3.41-0.58,6.45-2.69,9.15c0.66,0.66,1.32,1.31,1.97,1.97
			c2.88,2.88,5.76,5.76,8.63,8.63c0.58,0.58,0.56,1.46-0.03,1.92c-0.47,0.36-1.21,0.32-1.64-0.1c-1.3-1.3-2.6-2.6-3.9-3.9
			c-1.2-1.2-2.41-2.41-3.62-3.61c-1.02-1.02-2.04-2.04-3.06-3.07C23.68,25.49,23.64,25.46,23.59,25.42z M15.79,6.02
			c-5.53,0.02-9.98,4.49-9.86,10.11c0.12,5.32,4.47,9.73,10.09,9.62c5.32-0.11,9.71-4.46,9.62-10.02
			C25.57,10.33,21.23,6.04,15.79,6.02z"/>
	</g>
</g>
</svg>
